Coordinates
version=1
nRows=9
nColumns=42
inDegrees=yes

Units are S.I. units (second, meters, Newtons, ...)
If the header above contains a line with 'inDegrees', this indicates whether rotational values are in degrees (yes) or radians (no).

endheader
time	pelvis_tilt	pelvis_list	pelvis_rotation	pelvis_tx	pelvis_ty	pelvis_tz	hip_flexion_r	hip_adduction_r	hip_rotation_r	knee_angle_r	knee_adduction_r	knee_angle_r_beta	ankle_angle_r	subtalar_angle_r	mtp_angle_r	hip_flexion_l	hip_adduction_l	hip_rotation_l	knee_angle_l	knee_adduction_l	knee_angle_l_beta	ankle_angle_l	subtalar_angle_l	mtp_angle_l	lumbar_extension	lumbar_bending	lumbar_rotation	arm_flex_r	arm_add_r	arm_rot_r	elbow_flex_r	pro_sup_r	wrist_flex_r	wrist_dev_r	arm_flex_l	arm_add_l	arm_rot_l	elbow_flex_l	pro_sup_l	wrist_flex_l	wrist_dev_l
      0.00000000	     22.96758633	     -1.73960696	      7.44081355	     -2.59093722	      0.90915628	      0.16840714	    -29.77409870	      9.64438306	    -39.62467484	     14.43233311	     -4.02484959	      0.25189173	     35.05967008	     38.29038326	     -9.45782673	      5.51911491	     -3.21262088	    -16.15118472	     31.56099765	    -10.07490950	      0.55084332	     22.67972909	     23.99642418	     -9.45782673	    -50.32520864	      7.79482006	      2.49483972	     11.97469990	    -18.69291140	      8.34973886	     45.91040407	     90.00000001	      0.00000000	      0.00000000	      3.40870581	    -10.93683864	     -2.93638736	     44.49410905	     90.00000001	      0.00000000	      0.00000000
      0.01000000	     22.39638769	     -2.33928657	      7.66565073	     -2.58010946	      0.90612848	      0.16767910	    -29.80010991	     10.49737420	    -39.65453143	     14.35687440	     -4.30353747	      0.25057473	     35.45840008	     38.31677708	     -9.42978122	      7.24897253	     -3.51350021	    -15.35104517	     29.68345860	     -9.18355002	      0.51807409	     21.79335526	     24.84526808	     -9.42978122	    -49.73474970	      8.35001669	      2.86011545	     12.48939986	    -19.00693647	      7.99478049	     46.21554694	     90.00000001	      0.00000000	      0.00000000	      2.85157970	    -10.66777519	     -3.20035020	     43.99320241	     90.00000001	      0.00000000	      0.00000000
      0.02000000	     21.83111895	     -2.90284217	      7.92637456	     -2.56903831	      0.90307592	      0.16682567	    -29.81854138	     11.33235948	    -39.67364309	     14.33171087	     -4.61567537	      0.25013554	     35.76287876	     38.22838629	     -9.39869768	      8.87864872	     -3.77460856	    -14.56607723	     27.86766065	     -8.29307837	      0.48638243	     20.93915351	     25.94483258	     -9.39869768	    -49.11359490	      8.90322301	      3.12069508	     12.94617775	    -19.21490926	      7.39439981	     46.54239233	     90.00000001	      0.00000000	      0.00000000	      2.31261146	    -10.33542881	     -3.68908677	     43.32894064	     90.00000001	      0.00000000	      0.00000000
      0.03000000	     21.30586900	     -3.47667907	      8.13015396	     -2.55782698	      0.90005536	      0.16594610	    -29.83340134	     12.09900878	    -39.68835536	     14.44494758	     -4.95578997	      0.25211190	     36.00613241	     38.11436734	     -9.36518701	     10.37615631	     -4.04585032	    -13.91382990	     26.14443191	     -7.48540411	      0.45630642	     20.28663859	     27.01410216	     -9.36518701	    -48.51752825	      9.44411308	      3.39251404	     13.33941671	    -19.38628108	      6.70366888	     46.86601246	     90.00000001	      0.00000000	      0.00000000	      1.79669044	     -9.98940417	     -4.22306717	     42.65116913	     90.00000001	      0.00000000	      0.00000000
      0.04000000	     20.81893453	     -3.96617995	      8.26333975	     -2.54639221	      0.89716896	      0.16510160	    -29.84514309	     12.71568019	    -39.70292893	     14.71157092	     -5.35968724	      0.25676535	     36.18547010	     38.00559346	     -9.32614859	     11.68082630	     -4.22525979	    -13.42151072	     24.48877187	     -6.78988887	      0.42740970	     19.76976540	     28.36334693	     -9.32614859	    -47.94275243	      9.86352961	      3.62157918	     13.64199578	    -19.45931168	      5.79491256	     47.20470240	     90.00000001	      0.00000000	      0.00000000	      1.31911968	     -9.59675182	     -4.93795579	     41.85556559	     90.00000001	      0.00000000	      0.00000000
      0.05000000	     20.39820018	     -4.42691456	      8.29536147	     -2.53479432	      0.89445972	      0.16432229	    -29.85375233	     13.20652252	    -39.71320113	     15.18107706	     -5.85500132	      0.26495978	     36.36686194	     37.95247531	     -9.28406737	     12.79743567	     -4.38543801	    -13.03899471	     23.01678307	     -6.20330776	      0.40171865	     19.45857496	     29.47948688	     -9.28406737	    -47.43208119	     10.19740923	      3.90440421	     13.84933305	    -19.54112210	      5.03079074	     47.50233166	     90.00000001	      0.00000000	      0.00000000	      0.85555497	     -9.23594378	     -5.52014176	     41.12446517	     90.00000001	      0.00000000	      0.00000000
      0.06000000	     20.03352425	     -4.85298718	      8.21752588	     -2.52310087	      0.89196007	      0.16359956	    -29.85996616	     13.53184169	    -39.71856341	     15.86715055	     -6.36880835	      0.27693402	     36.50151069	     37.89550381	     -9.25526044	     13.75298917	     -4.52745829	    -12.82277267	     21.81545102	     -5.78037267	      0.38075145	     19.29732816	     30.51492473	     -9.25526044	    -46.99558444	     10.44694354	      4.20359558	     14.01587363	    -19.65699350	      4.35517506	     47.77502917	     90.00000001	      0.00000000	      0.00000000	      0.41515583	     -8.90395838	     -6.01508973	     40.41816505	     90.00000001	      0.00000000	      0.00000000
      0.07000000	     19.68901426	     -5.07143207	      7.94818255	     -2.51102900	      0.88972413	      0.16287865	    -29.86587320	     13.45894577	    -39.72572224	     16.77767545	     -6.91238554	      0.29282568	     36.65962618	     37.87525935	     -9.21223480	     14.49039541	     -4.44804764	    -13.01209736	     20.80696131	     -5.59856930	      0.36314998	     19.22745973	     31.81588702	     -9.21223480	    -46.57029619	     10.41830903	      4.43822304	     14.06533942	    -19.62385290	      3.42644401	     48.13506084	     90.00000001	      0.00000000	      0.00000000	      0.02162266	     -8.46830193	     -6.82494760	     39.51946088	     90.00000001	      0.00000000	      0.00000000
      0.08000000	     19.40753591	     -5.30834264	      7.66789603	     -2.49879485	      0.88764014	      0.16239138	    -29.87067101	     13.36962491	    -39.72979872	     17.85907923	     -7.51328267	      0.31169973	     36.72482067	     37.92863064	     -9.17063438	     15.13694414	     -4.44882206	    -13.21206376	     20.25473049	     -5.52840987	      0.35351174	     19.29013605	     32.57992958	     -9.17063438	    -46.18264168	     10.36868851	      4.67922760	     14.06451352	    -19.64527319	      2.87384002	     48.37815108	     90.00000001	      0.00000000	      0.00000000	     -0.38758547	     -8.21742396	     -7.39511132	     38.80755099	     90.00000001	      0.00000000	      0.00000000
